%TF.GenerationSoftware,KiCad,Pcbnew,(5.1.12)-1*%
%TF.CreationDate,2022-05-04T12:53:07+05:30*%
%TF.ProjectId,5V3.5W,3556332e-3557-42e6-9b69-6361645f7063,rev?*%
%TF.SameCoordinates,Original*%
%TF.FileFunction,Legend,Bot*%
%TF.FilePolarity,Positive*%
%FSLAX46Y46*%
G04 Gerber Fmt 4.6, Leading zero omitted, Abs format (unit mm)*
G04 Created by KiCad (PCBNEW (5.1.12)-1) date 2022-05-04 12:53:07*
%MOMM*%
%LPD*%
G01*
G04 APERTURE LIST*
%ADD10C,0.150000*%
%ADD11C,0.120000*%
%ADD12C,0.200000*%
%ADD13C,0.127000*%
G04 APERTURE END LIST*
D10*
X127339523Y-156512380D02*
X127006190Y-157512380D01*
X126672857Y-156512380D01*
X125815714Y-157512380D02*
X126387142Y-157512380D01*
X126101428Y-157512380D02*
X126101428Y-156512380D01*
X126196666Y-156655238D01*
X126291904Y-156750476D01*
X126387142Y-156798095D01*
X126735714Y-159577619D02*
X126830952Y-159530000D01*
X126926190Y-159434761D01*
X127069047Y-159291904D01*
X127164285Y-159244285D01*
X127259523Y-159244285D01*
X127211904Y-159482380D02*
X127307142Y-159434761D01*
X127402380Y-159339523D01*
X127450000Y-159149047D01*
X127450000Y-158815714D01*
X127402380Y-158625238D01*
X127307142Y-158530000D01*
X127211904Y-158482380D01*
X127021428Y-158482380D01*
X126926190Y-158530000D01*
X126830952Y-158625238D01*
X126783333Y-158815714D01*
X126783333Y-159149047D01*
X126830952Y-159339523D01*
X126926190Y-159434761D01*
X127021428Y-159482380D01*
X127211904Y-159482380D01*
X125926190Y-158815714D02*
X125926190Y-159482380D01*
X126354761Y-158815714D02*
X126354761Y-159339523D01*
X126307142Y-159434761D01*
X126211904Y-159482380D01*
X126069047Y-159482380D01*
X125973809Y-159434761D01*
X125926190Y-159387142D01*
X125450000Y-159482380D02*
X125450000Y-158815714D01*
X125450000Y-159006190D02*
X125402380Y-158910952D01*
X125354761Y-158863333D01*
X125259523Y-158815714D01*
X125164285Y-158815714D01*
X124688095Y-159482380D02*
X124783333Y-159434761D01*
X124830952Y-159387142D01*
X124878571Y-159291904D01*
X124878571Y-159006190D01*
X124830952Y-158910952D01*
X124783333Y-158863333D01*
X124688095Y-158815714D01*
X124545238Y-158815714D01*
X124450000Y-158863333D01*
X124402380Y-158910952D01*
X124354761Y-159006190D01*
X124354761Y-159291904D01*
X124402380Y-159387142D01*
X124450000Y-159434761D01*
X124545238Y-159482380D01*
X124688095Y-159482380D01*
X123783333Y-159482380D02*
X123878571Y-159434761D01*
X123926190Y-159339523D01*
X123926190Y-158482380D01*
X122973809Y-159482380D02*
X122973809Y-158958571D01*
X123021428Y-158863333D01*
X123116666Y-158815714D01*
X123307142Y-158815714D01*
X123402380Y-158863333D01*
X122973809Y-159434761D02*
X123069047Y-159482380D01*
X123307142Y-159482380D01*
X123402380Y-159434761D01*
X123450000Y-159339523D01*
X123450000Y-159244285D01*
X123402380Y-159149047D01*
X123307142Y-159101428D01*
X123069047Y-159101428D01*
X122973809Y-159053809D01*
X122497619Y-159482380D02*
X122497619Y-158482380D01*
X122497619Y-158863333D02*
X122402380Y-158815714D01*
X122211904Y-158815714D01*
X122116666Y-158863333D01*
X122069047Y-158910952D01*
X122021428Y-159006190D01*
X122021428Y-159291904D01*
X122069047Y-159387142D01*
X122116666Y-159434761D01*
X122211904Y-159482380D01*
X122402380Y-159482380D01*
X122497619Y-159434761D01*
X121640476Y-159434761D02*
X121545238Y-159482380D01*
X121354761Y-159482380D01*
X121259523Y-159434761D01*
X121211904Y-159339523D01*
X121211904Y-159291904D01*
X121259523Y-159196666D01*
X121354761Y-159149047D01*
X121497619Y-159149047D01*
X121592857Y-159101428D01*
X121640476Y-159006190D01*
X121640476Y-158958571D01*
X121592857Y-158863333D01*
X121497619Y-158815714D01*
X121354761Y-158815714D01*
X121259523Y-158863333D01*
X120021428Y-158815714D02*
X120021428Y-159815714D01*
X120021428Y-158863333D02*
X119926190Y-158815714D01*
X119735714Y-158815714D01*
X119640476Y-158863333D01*
X119592857Y-158910952D01*
X119545238Y-159006190D01*
X119545238Y-159291904D01*
X119592857Y-159387142D01*
X119640476Y-159434761D01*
X119735714Y-159482380D01*
X119926190Y-159482380D01*
X120021428Y-159434761D01*
X119211904Y-158815714D02*
X118973809Y-159482380D01*
X118735714Y-158815714D01*
X118497619Y-158815714D02*
X118116666Y-158815714D01*
X118354761Y-158482380D02*
X118354761Y-159339523D01*
X118307142Y-159434761D01*
X118211904Y-159482380D01*
X118116666Y-159482380D01*
X116878571Y-159482380D02*
X116973809Y-159434761D01*
X117021428Y-159339523D01*
X117021428Y-158482380D01*
X116640476Y-158815714D02*
X116259523Y-158815714D01*
X116497619Y-158482380D02*
X116497619Y-159339523D01*
X116450000Y-159434761D01*
X116354761Y-159482380D01*
X116259523Y-159482380D01*
X115497619Y-159482380D02*
X115497619Y-158482380D01*
X115497619Y-159434761D02*
X115592857Y-159482380D01*
X115783333Y-159482380D01*
X115878571Y-159434761D01*
X115926190Y-159387142D01*
X115973809Y-159291904D01*
X115973809Y-159006190D01*
X115926190Y-158910952D01*
X115878571Y-158863333D01*
X115783333Y-158815714D01*
X115592857Y-158815714D01*
X115497619Y-158863333D01*
D11*
%TO.C,C3*%
X103840000Y-154538748D02*
X103840000Y-155961252D01*
X105660000Y-154538748D02*
X105660000Y-155961252D01*
%TO.C,D2*%
X96400000Y-140250000D02*
X96400000Y-138250000D01*
X96400000Y-138250000D02*
X100250000Y-138250000D01*
X96400000Y-140250000D02*
X100250000Y-140250000D01*
%TO.C,F1*%
X99090000Y-145497936D02*
X99090000Y-146702064D01*
X100910000Y-145497936D02*
X100910000Y-146702064D01*
D12*
%TO.C,OPT1*%
X108050000Y-152500000D02*
G75*
G03*
X108050000Y-152500000I-100000J0D01*
G01*
D13*
X108270000Y-150470000D02*
X108270000Y-146530000D01*
X103230000Y-150470000D02*
X103230000Y-146530000D01*
D11*
%TO.C,R3*%
X108950000Y-152370000D02*
X108950000Y-151770000D01*
X110550000Y-152350000D02*
X110550000Y-151750000D01*
%TO.C,R4*%
X108300000Y-155300000D02*
X108300000Y-154700000D01*
X106700000Y-155320000D02*
X106700000Y-154720000D01*
%TO.C,R5*%
X108480000Y-138450000D02*
X109080000Y-138450000D01*
X108500000Y-140050000D02*
X109100000Y-140050000D01*
%TO.C,R6*%
X103450000Y-140050000D02*
X104050000Y-140050000D01*
X103430000Y-138450000D02*
X104030000Y-138450000D01*
D10*
%TO.C,D3*%
X125246000Y-140750000D02*
X124992000Y-140750000D01*
X122071000Y-138845000D02*
X122071000Y-142655000D01*
X122198000Y-142655000D02*
X121944000Y-142655000D01*
X121944000Y-142655000D02*
X121944000Y-138845000D01*
X121944000Y-138845000D02*
X122198000Y-138845000D01*
X122325000Y-138845000D02*
X122198000Y-138845000D01*
X122198000Y-138845000D02*
X122198000Y-142655000D01*
X122198000Y-142655000D02*
X122325000Y-142655000D01*
X123214000Y-142655000D02*
X128802000Y-142655000D01*
X128802000Y-142655000D02*
X128802000Y-138845000D01*
X128802000Y-138845000D02*
X123214000Y-138845000D01*
X123214000Y-138845000D02*
X122325000Y-138845000D01*
X122325000Y-138845000D02*
X122325000Y-142655000D01*
X122325000Y-142655000D02*
X123214000Y-142655000D01*
D13*
X125881000Y-140750000D02*
X126084200Y-140750000D01*
X127786000Y-138845000D02*
X123214000Y-138845000D01*
X127786000Y-142655000D02*
X123214000Y-142655000D01*
X125246000Y-140750000D02*
X125881000Y-140275020D01*
X125881000Y-140275020D02*
X125881000Y-140750000D01*
X125881000Y-140750000D02*
X125881000Y-141224980D01*
X125881000Y-141224980D02*
X125246000Y-140750000D01*
X125246000Y-140750000D02*
X125246000Y-140432500D01*
X125246000Y-140432500D02*
X125403480Y-140275020D01*
X125246000Y-140750000D02*
X125246000Y-141067500D01*
X125246000Y-141067500D02*
X125088520Y-141224980D01*
D11*
%TO.C,R2*%
X108950000Y-147320000D02*
X108950000Y-146720000D01*
X110550000Y-147300000D02*
X110550000Y-146700000D01*
%TD*%
M02*
