M48
; DRILL file {KiCad (5.1.12)-1} date 05/04/22 12:53:10
; FORMAT={-:-/ absolute / inch / decimal}
; #@! TF.CreationDate,2022-05-04T12:53:10+05:30
; #@! TF.GenerationSoftware,Kicad,Pcbnew,(5.1.12)-1
; #@! TF.FileFunction,Plated,1,2,PTH
FMAT,2
INCH
T1C0.0157
T2C0.0197
T3C0.0315
T4C0.0394
T5C0.0472
%
G90
G05
T1
X3.8549Y-5.8136
T2
X3.7992Y-5.748
X3.7992Y-5.9843
X5.1181Y-5.5118
X5.1181Y-6.2205
T3
X3.8189Y-5.6004
X4.0157Y-5.6004
X4.0354Y-6.2205
X4.2323Y-6.2205
X4.3799Y-6.1713
X4.7736Y-6.1713
X4.9705Y-5.6594
X4.9705Y-6.0039
X5.0689Y-5.6594
X5.0689Y-6.0039
T4
X3.8583Y-6.0827
X3.8583Y-6.2402
X4.1535Y-5.5709
X4.2243Y-5.6416
T5
X4.4191Y-5.5413
X4.4191Y-5.6398
X4.4191Y-5.7382
X4.4191Y-5.8366
X4.4191Y-5.935
X4.7541Y-5.5413
X4.7541Y-5.6398
X4.7541Y-5.7382
X4.7541Y-5.8366
X4.7541Y-5.935
T0
M30
