%TF.GenerationSoftware,KiCad,Pcbnew,(5.1.12)-1*%
%TF.CreationDate,2022-05-04T12:53:07+05:30*%
%TF.ProjectId,5V3.5W,3556332e-3557-42e6-9b69-6361645f7063,rev?*%
%TF.SameCoordinates,Original*%
%TF.FileFunction,Copper,L2,Bot*%
%TF.FilePolarity,Positive*%
%FSLAX46Y46*%
G04 Gerber Fmt 4.6, Leading zero omitted, Abs format (unit mm)*
G04 Created by KiCad (PCBNEW (5.1.12)-1) date 2022-05-04 12:53:07*
%MOMM*%
%LPD*%
G01*
G04 APERTURE LIST*
%TA.AperFunction,ComponentPad*%
%ADD10C,1.600000*%
%TD*%
%TA.AperFunction,ComponentPad*%
%ADD11R,1.600000X1.600000*%
%TD*%
%TA.AperFunction,ComponentPad*%
%ADD12O,1.600000X1.600000*%
%TD*%
%TA.AperFunction,SMDPad,CuDef*%
%ADD13R,1.100000X1.100000*%
%TD*%
%TA.AperFunction,SMDPad,CuDef*%
%ADD14R,1.200000X1.200000*%
%TD*%
%TA.AperFunction,ComponentPad*%
%ADD15R,1.000000X1.000000*%
%TD*%
%TA.AperFunction,ComponentPad*%
%ADD16C,1.000000*%
%TD*%
%TA.AperFunction,ComponentPad*%
%ADD17R,1.800000X1.800000*%
%TD*%
%TA.AperFunction,ComponentPad*%
%ADD18C,1.800000*%
%TD*%
%TA.AperFunction,SMDPad,CuDef*%
%ADD19R,1.800860X2.199640*%
%TD*%
%TA.AperFunction,ComponentPad*%
%ADD20C,2.000000*%
%TD*%
%TA.AperFunction,ComponentPad*%
%ADD21C,0.100000*%
%TD*%
%TA.AperFunction,ViaPad*%
%ADD22C,0.800000*%
%TD*%
%TA.AperFunction,Conductor*%
%ADD23C,0.800000*%
%TD*%
%TA.AperFunction,Conductor*%
%ADD24C,0.850000*%
%TD*%
%TA.AperFunction,Conductor*%
%ADD25C,1.000000*%
%TD*%
%TA.AperFunction,Conductor*%
%ADD26C,2.000000*%
%TD*%
%TA.AperFunction,Conductor*%
%ADD27C,0.500000*%
%TD*%
%TA.AperFunction,Conductor*%
%ADD28C,1.500000*%
%TD*%
G04 APERTURE END LIST*
D10*
%TO.P,C1,2*%
%TO.N,Net-(C1-Pad2)*%
X107500000Y-158000000D03*
D11*
%TO.P,C1,1*%
%TO.N,Net-(C1-Pad1)*%
X102500000Y-158000000D03*
%TD*%
%TO.P,C2,1*%
%TO.N,Net-(C2-Pad1)*%
X102000000Y-142250000D03*
D10*
%TO.P,C2,2*%
%TO.N,Net-(C1-Pad2)*%
X97000000Y-142250000D03*
%TD*%
%TO.P,C3,1*%
%TO.N,Net-(C3-Pad1)*%
%TA.AperFunction,SMDPad,CuDef*%
G36*
G01*
X104099999Y-153200000D02*
X105400001Y-153200000D01*
G75*
G02*
X105650000Y-153449999I0J-249999D01*
G01*
X105650000Y-154100001D01*
G75*
G02*
X105400001Y-154350000I-249999J0D01*
G01*
X104099999Y-154350000D01*
G75*
G02*
X103850000Y-154100001I0J249999D01*
G01*
X103850000Y-153449999D01*
G75*
G02*
X104099999Y-153200000I249999J0D01*
G01*
G37*
%TD.AperFunction*%
%TO.P,C3,2*%
%TO.N,Net-(C1-Pad2)*%
%TA.AperFunction,SMDPad,CuDef*%
G36*
G01*
X104099999Y-156150000D02*
X105400001Y-156150000D01*
G75*
G02*
X105650000Y-156399999I0J-249999D01*
G01*
X105650000Y-157050001D01*
G75*
G02*
X105400001Y-157300000I-249999J0D01*
G01*
X104099999Y-157300000D01*
G75*
G02*
X103850000Y-157050001I0J249999D01*
G01*
X103850000Y-156399999D01*
G75*
G02*
X104099999Y-156150000I249999J0D01*
G01*
G37*
%TD.AperFunction*%
%TD*%
%TO.P,C5,1*%
%TO.N,Net-(C5-Pad1)*%
X121250000Y-156750000D03*
D12*
%TO.P,C5,2*%
%TO.N,Net-(C1-Pad2)*%
X111250000Y-156750000D03*
%TD*%
D10*
%TO.P,C6,2*%
%TO.N,Net-(C5-Pad1)*%
X128750000Y-143750000D03*
D11*
%TO.P,C6,1*%
%TO.N,Net-(C6-Pad1)*%
X126250000Y-143750000D03*
%TD*%
%TO.P,C7,1*%
%TO.N,Net-(C7-Pad1)*%
X128750000Y-152500000D03*
D10*
%TO.P,C7,2*%
%TO.N,Net-(C5-Pad1)*%
X126250000Y-152500000D03*
%TD*%
D13*
%TO.P,D2,1*%
%TO.N,Net-(C1-Pad2)*%
X97200000Y-139250000D03*
%TO.P,D2,2*%
%TO.N,Net-(D2-Pad2)*%
X100000000Y-139250000D03*
%TD*%
%TO.P,F1,1*%
%TO.N,Net-(F1-Pad1)*%
%TA.AperFunction,SMDPad,CuDef*%
G36*
G01*
X99375000Y-144075000D02*
X100625000Y-144075000D01*
G75*
G02*
X100875000Y-144325000I0J-250000D01*
G01*
X100875000Y-145075000D01*
G75*
G02*
X100625000Y-145325000I-250000J0D01*
G01*
X99375000Y-145325000D01*
G75*
G02*
X99125000Y-145075000I0J250000D01*
G01*
X99125000Y-144325000D01*
G75*
G02*
X99375000Y-144075000I250000J0D01*
G01*
G37*
%TD.AperFunction*%
%TO.P,F1,2*%
%TO.N,Net-(D1-Pad3)*%
%TA.AperFunction,SMDPad,CuDef*%
G36*
G01*
X99375000Y-146875000D02*
X100625000Y-146875000D01*
G75*
G02*
X100875000Y-147125000I0J-250000D01*
G01*
X100875000Y-147875000D01*
G75*
G02*
X100625000Y-148125000I-250000J0D01*
G01*
X99375000Y-148125000D01*
G75*
G02*
X99125000Y-147875000I0J250000D01*
G01*
X99125000Y-147125000D01*
G75*
G02*
X99375000Y-146875000I250000J0D01*
G01*
G37*
%TD.AperFunction*%
%TD*%
%TO.P,OPT1,1*%
%TO.N,Net-(OPT1-Pad1)*%
%TA.AperFunction,SMDPad,CuDef*%
G36*
G01*
X107908700Y-151955000D02*
X107401300Y-151955000D01*
G75*
G02*
X107360000Y-151913700I0J41300D01*
G01*
X107360000Y-150356300D01*
G75*
G02*
X107401300Y-150315000I41300J0D01*
G01*
X107908700Y-150315000D01*
G75*
G02*
X107950000Y-150356300I0J-41300D01*
G01*
X107950000Y-151913700D01*
G75*
G02*
X107908700Y-151955000I-41300J0D01*
G01*
G37*
%TD.AperFunction*%
%TO.P,OPT1,2*%
%TO.N,Net-(OPT1-Pad2)*%
%TA.AperFunction,SMDPad,CuDef*%
G36*
G01*
X106638700Y-151955000D02*
X106131300Y-151955000D01*
G75*
G02*
X106090000Y-151913700I0J41300D01*
G01*
X106090000Y-150356300D01*
G75*
G02*
X106131300Y-150315000I41300J0D01*
G01*
X106638700Y-150315000D01*
G75*
G02*
X106680000Y-150356300I0J-41300D01*
G01*
X106680000Y-151913700D01*
G75*
G02*
X106638700Y-151955000I-41300J0D01*
G01*
G37*
%TD.AperFunction*%
%TO.P,OPT1,3*%
%TO.N,Net-(C3-Pad1)*%
%TA.AperFunction,SMDPad,CuDef*%
G36*
G01*
X105368700Y-151955000D02*
X104861300Y-151955000D01*
G75*
G02*
X104820000Y-151913700I0J41300D01*
G01*
X104820000Y-150356300D01*
G75*
G02*
X104861300Y-150315000I41300J0D01*
G01*
X105368700Y-150315000D01*
G75*
G02*
X105410000Y-150356300I0J-41300D01*
G01*
X105410000Y-151913700D01*
G75*
G02*
X105368700Y-151955000I-41300J0D01*
G01*
G37*
%TD.AperFunction*%
%TO.P,OPT1,4*%
%TO.N,Net-(OPT1-Pad4)*%
%TA.AperFunction,SMDPad,CuDef*%
G36*
G01*
X104098700Y-151955000D02*
X103591300Y-151955000D01*
G75*
G02*
X103550000Y-151913700I0J41300D01*
G01*
X103550000Y-150356300D01*
G75*
G02*
X103591300Y-150315000I41300J0D01*
G01*
X104098700Y-150315000D01*
G75*
G02*
X104140000Y-150356300I0J-41300D01*
G01*
X104140000Y-151913700D01*
G75*
G02*
X104098700Y-151955000I-41300J0D01*
G01*
G37*
%TD.AperFunction*%
%TO.P,OPT1,5*%
%TO.N,Net-(C2-Pad1)*%
%TA.AperFunction,SMDPad,CuDef*%
G36*
G01*
X104098700Y-146685000D02*
X103591300Y-146685000D01*
G75*
G02*
X103550000Y-146643700I0J41300D01*
G01*
X103550000Y-145086300D01*
G75*
G02*
X103591300Y-145045000I41300J0D01*
G01*
X104098700Y-145045000D01*
G75*
G02*
X104140000Y-145086300I0J-41300D01*
G01*
X104140000Y-146643700D01*
G75*
G02*
X104098700Y-146685000I-41300J0D01*
G01*
G37*
%TD.AperFunction*%
%TO.P,OPT1,6*%
%TA.AperFunction,SMDPad,CuDef*%
G36*
G01*
X105368700Y-146685000D02*
X104861300Y-146685000D01*
G75*
G02*
X104820000Y-146643700I0J41300D01*
G01*
X104820000Y-145086300D01*
G75*
G02*
X104861300Y-145045000I41300J0D01*
G01*
X105368700Y-145045000D01*
G75*
G02*
X105410000Y-145086300I0J-41300D01*
G01*
X105410000Y-146643700D01*
G75*
G02*
X105368700Y-146685000I-41300J0D01*
G01*
G37*
%TD.AperFunction*%
%TO.P,OPT1,7*%
%TO.N,Net-(OPT1-Pad7)*%
%TA.AperFunction,SMDPad,CuDef*%
G36*
G01*
X106638700Y-146685000D02*
X106131300Y-146685000D01*
G75*
G02*
X106090000Y-146643700I0J41300D01*
G01*
X106090000Y-145086300D01*
G75*
G02*
X106131300Y-145045000I41300J0D01*
G01*
X106638700Y-145045000D01*
G75*
G02*
X106680000Y-145086300I0J-41300D01*
G01*
X106680000Y-146643700D01*
G75*
G02*
X106638700Y-146685000I-41300J0D01*
G01*
G37*
%TD.AperFunction*%
%TO.P,OPT1,8*%
%TO.N,Net-(C4-Pad1)*%
%TA.AperFunction,SMDPad,CuDef*%
G36*
G01*
X107908700Y-146685000D02*
X107401300Y-146685000D01*
G75*
G02*
X107360000Y-146643700I0J41300D01*
G01*
X107360000Y-145086300D01*
G75*
G02*
X107401300Y-145045000I41300J0D01*
G01*
X107908700Y-145045000D01*
G75*
G02*
X107950000Y-145086300I0J-41300D01*
G01*
X107950000Y-146643700D01*
G75*
G02*
X107908700Y-146685000I-41300J0D01*
G01*
G37*
%TD.AperFunction*%
%TD*%
D14*
%TO.P,R3,2*%
%TO.N,Net-(OPT1-Pad1)*%
X109750000Y-151000000D03*
%TO.P,R3,1*%
%TO.N,Net-(C1-Pad2)*%
X109750000Y-153100000D03*
%TD*%
%TO.P,R4,1*%
%TO.N,Net-(C1-Pad2)*%
X107500000Y-156050000D03*
%TO.P,R4,2*%
%TO.N,Net-(OPT1-Pad2)*%
X107500000Y-153950000D03*
%TD*%
%TO.P,R5,2*%
%TO.N,Net-(C4-Pad1)*%
X109850000Y-139250000D03*
%TO.P,R5,1*%
%TO.N,Net-(C4-Pad2)*%
X107750000Y-139250000D03*
%TD*%
%TO.P,R6,1*%
%TO.N,Net-(D2-Pad2)*%
X102700000Y-139250000D03*
%TO.P,R6,2*%
%TO.N,Net-(C4-Pad2)*%
X104800000Y-139250000D03*
%TD*%
D15*
%TO.P,TP1,1*%
%TO.N,Net-(F1-Pad1)*%
X96500000Y-146000000D03*
%TD*%
D16*
%TO.P,TP2,1*%
%TO.N,Net-(D1-Pad4)*%
X96500000Y-152000000D03*
%TD*%
D15*
%TO.P,TP3,1*%
%TO.N,Net-(C7-Pad1)*%
X130000000Y-158000000D03*
%TD*%
D16*
%TO.P,TP4,1*%
%TO.N,Net-(C5-Pad1)*%
X130000000Y-140000000D03*
%TD*%
D17*
%TO.P,U1,1*%
%TO.N,Net-(C4-Pad1)*%
X112245000Y-140750000D03*
D18*
%TO.P,U1,2*%
%TO.N,Net-(U1-Pad2)*%
X112245000Y-143250000D03*
%TO.P,U1,3*%
%TO.N,Net-(U1-Pad3)*%
X112245000Y-145750000D03*
%TO.P,U1,4*%
%TO.N,Net-(U1-Pad4)*%
X112245000Y-148250000D03*
%TO.P,U1,5*%
%TO.N,Net-(C1-Pad2)*%
X112245000Y-150750000D03*
%TO.P,U1,6*%
%TO.N,Net-(U1-Pad6)*%
X120755000Y-150750000D03*
%TO.P,U1,7*%
%TO.N,Net-(C5-Pad1)*%
X120755000Y-148250000D03*
%TO.P,U1,8*%
%TO.N,Net-(U1-Pad8)*%
X120755000Y-145750000D03*
%TO.P,U1,9*%
%TO.N,Net-(U1-Pad9)*%
X120755000Y-143250000D03*
%TO.P,U1,10*%
%TO.N,Net-(D3-Pad2)*%
X120755000Y-140750000D03*
%TD*%
D19*
%TO.P,D3,1*%
%TO.N,Net-(C6-Pad1)*%
X127506600Y-140750000D03*
%TO.P,D3,2*%
%TO.N,Net-(D3-Pad2)*%
X123493400Y-140750000D03*
%TD*%
D20*
%TO.P,L1,1*%
%TO.N,Net-(C1-Pad1)*%
X98000000Y-158500000D03*
%TO.P,L1,2*%
%TO.N,Net-(C2-Pad1)*%
X98000000Y-154500000D03*
%TD*%
D14*
%TO.P,R2,2*%
%TO.N,Net-(C4-Pad1)*%
X109750000Y-145950000D03*
%TO.P,R2,1*%
%TO.N,Net-(OPT1-Pad1)*%
X109750000Y-148050000D03*
%TD*%
%TA.AperFunction,ComponentPad*%
D21*
%TO.P,C4,1*%
%TO.N,Net-(C4-Pad1)*%
G36*
X107296051Y-142093969D02*
G01*
X108498133Y-143296051D01*
X107296051Y-144498133D01*
X106093969Y-143296051D01*
X107296051Y-142093969D01*
G37*
%TD.AperFunction*%
%TO.P,C4,2*%
%TO.N,Net-(C4-Pad2)*%
%TA.AperFunction,ComponentPad*%
G36*
G01*
X106101041Y-140898959D02*
X106101041Y-140898959D01*
G75*
G02*
X106101041Y-142101041I-601041J-601041D01*
G01*
X106101041Y-142101041D01*
G75*
G02*
X104898959Y-142101041I-601041J601041D01*
G01*
X104898959Y-142101041D01*
G75*
G02*
X104898959Y-140898959I601041J601041D01*
G01*
X104898959Y-140898959D01*
G75*
G02*
X106101041Y-140898959I601041J-601041D01*
G01*
G37*
%TD.AperFunction*%
%TD*%
D22*
%TO.N,Net-(D1-Pad3)*%
X97915000Y-147665000D03*
%TD*%
D23*
%TO.N,Net-(C1-Pad2)*%
X107500000Y-156050000D02*
X107500000Y-156750000D01*
X109750000Y-156500000D02*
X109500000Y-156750000D01*
X107500000Y-156750000D02*
X109500000Y-156750000D01*
D24*
X109750000Y-153100000D02*
X111400000Y-153100000D01*
X112245000Y-152255000D02*
X112245000Y-150750000D01*
X111400000Y-153100000D02*
X112245000Y-152255000D01*
X97200000Y-142050000D02*
X97000000Y-142250000D01*
X97200000Y-139250000D02*
X97200000Y-142050000D01*
X104750000Y-156725000D02*
X107475000Y-156725000D01*
D25*
X111000000Y-156500000D02*
X111250000Y-156750000D01*
X109750000Y-156500000D02*
X111000000Y-156500000D01*
D26*
X111225000Y-156725000D02*
X111250000Y-156750000D01*
X104750000Y-156725000D02*
X111225000Y-156725000D01*
X107500000Y-156750000D02*
X107475000Y-156725000D01*
X107500000Y-158000000D02*
X107500000Y-156750000D01*
X112245000Y-155755000D02*
X111250000Y-156750000D01*
X112100000Y-153100000D02*
X112245000Y-153245000D01*
X109750000Y-153100000D02*
X112100000Y-153100000D01*
X112245000Y-153245000D02*
X112245000Y-155755000D01*
X112245000Y-150750000D02*
X112245000Y-153245000D01*
D25*
%TO.N,Net-(C2-Pad1)*%
X103845000Y-145865000D02*
X103845000Y-147905000D01*
X98000000Y-153750000D02*
X98000000Y-154500000D01*
X103845000Y-147905000D02*
X98000000Y-153750000D01*
X103845000Y-144095000D02*
X103845000Y-145865000D01*
X102000000Y-142250000D02*
X103845000Y-144095000D01*
X103845000Y-145865000D02*
X105115000Y-145865000D01*
D27*
%TO.N,Net-(C3-Pad1)*%
X105115000Y-153410000D02*
X104750000Y-153775000D01*
X105115000Y-151135000D02*
X105115000Y-153410000D01*
%TO.N,Net-(C4-Pad1)*%
X107740000Y-145950000D02*
X107655000Y-145865000D01*
X107655000Y-143655000D02*
X107296051Y-143296051D01*
D24*
X109750000Y-139350000D02*
X109850000Y-139250000D01*
D28*
X112245000Y-140750000D02*
X110250000Y-140750000D01*
X110250000Y-140750000D02*
X108000000Y-143000000D01*
X108000000Y-143000000D02*
X108000000Y-146000000D01*
X109850000Y-140350000D02*
X110250000Y-140750000D01*
X109850000Y-139250000D02*
X109850000Y-140350000D01*
D27*
X108050000Y-145950000D02*
X108000000Y-146000000D01*
X109750000Y-145950000D02*
X108050000Y-145950000D01*
X107703949Y-143296051D02*
X108000000Y-143000000D01*
X107296051Y-143296051D02*
X107703949Y-143296051D01*
D23*
%TO.N,Net-(C4-Pad2)*%
X105500000Y-139500000D02*
X105750000Y-139250000D01*
X105500000Y-141500000D02*
X105500000Y-139500000D01*
X105750000Y-139250000D02*
X104800000Y-139250000D01*
X107750000Y-139250000D02*
X105750000Y-139250000D01*
D26*
%TO.N,Net-(C5-Pad1)*%
X126250000Y-148500000D02*
X126000000Y-148250000D01*
X126250000Y-152500000D02*
X126250000Y-148500000D01*
X120755000Y-148250000D02*
X126000000Y-148250000D01*
X126250000Y-152500000D02*
X126250000Y-154250000D01*
X123750000Y-156750000D02*
X121250000Y-156750000D01*
X126250000Y-154250000D02*
X123750000Y-156750000D01*
X128750000Y-147000000D02*
X128750000Y-143750000D01*
X127500000Y-148250000D02*
X128750000Y-147000000D01*
X126000000Y-148250000D02*
X127500000Y-148250000D01*
%TO.N,Net-(C6-Pad1)*%
X126250000Y-142006600D02*
X126250000Y-143750000D01*
X127506600Y-140750000D02*
X126250000Y-142006600D01*
D24*
%TO.N,Net-(D1-Pad3)*%
X98080000Y-147500000D02*
X97915000Y-147665000D01*
X100000000Y-147500000D02*
X98080000Y-147500000D01*
D23*
%TO.N,Net-(D2-Pad2)*%
X102700000Y-139250000D02*
X100000000Y-139250000D01*
D24*
%TO.N,Net-(F1-Pad1)*%
X97800000Y-144700000D02*
X96500000Y-146000000D01*
X100000000Y-144700000D02*
X97800000Y-144700000D01*
D27*
%TO.N,Net-(OPT1-Pad1)*%
X109615000Y-151135000D02*
X109750000Y-151000000D01*
X107655000Y-151135000D02*
X109615000Y-151135000D01*
X109750000Y-151000000D02*
X109750000Y-148050000D01*
%TO.N,Net-(OPT1-Pad2)*%
X106385000Y-152835000D02*
X107500000Y-153950000D01*
X106385000Y-151135000D02*
X106385000Y-152835000D01*
D26*
%TO.N,Net-(D3-Pad2)*%
X123493400Y-140750000D02*
X120755000Y-140750000D01*
%TD*%
M02*
